<?xml version="1.0" encoding="UTF-8" standalone="no"?><svg xmlns="http://www.w3.org/2000/svg" xmlns:xlink="http://www.w3.org/1999/xlink" contentScriptType="application/ecmascript" contentStyleType="text/css" height="3990.4px" preserveAspectRatio="none" style="width:784px;height:3990px;" version="1.1" viewBox="0 0 784 3990" width="784px" zoomAndPan="magnify"><defs/><g><!--MD5=[2efe879683dd04c6c74bf64dc9b711a4]
cluster University Academic Portal\n(Timebox 1: Student Registration & Course Registration)--><rect fill="#FFFFFF" height="3969.6" style="stroke:#000000;stroke-width:2.4000000000000004;" width="654.4" x="120" y="11.2"/><text fill="#000000" font-family="sans-serif" font-size="22.4" font-weight="bold" lengthAdjust="spacing" textLength="299.2" x="297.6" y="37.6531">University Academic Portal</text><text fill="#000000" font-family="sans-serif" font-size="22.4" font-weight="bold" lengthAdjust="spacing" textLength="628.8" x="132.8" y="65.8281">(Timebox 1: Student Registration &amp; Course Registration)</text><!--MD5=[669ffbe244fb641535368be69a430f75]
cluster Manage User--><rect fill="#F0F8FF" height="1024" style="stroke:#000000;stroke-width:2.4000000000000004;" width="352" x="271.2" y="110.4"/><text fill="#000000" font-family="sans-serif" font-size="22.4" font-weight="bold" lengthAdjust="spacing" textLength="148.8" x="372.8" y="136.8531">Manage User</text><!--MD5=[f58e02aa189eb807767879b583103d7e]
cluster Manage Student--><rect fill="#F5FFFA" height="712" style="stroke:#000000;stroke-width:2.4000000000000004;" width="347.2" x="273.6" y="2190.4"/><text fill="#000000" font-family="sans-serif" font-size="22.4" font-weight="bold" lengthAdjust="spacing" textLength="184" x="355.2" y="2216.8531">Manage Student</text><!--MD5=[aadc717b11792bd21e21dcaa8d8fc5e0]
cluster Manage Course--><rect fill="#F0FFF0" height="472" style="stroke:#000000;stroke-width:2.4000000000000004;" width="292.8" x="300.8" y="2940.8"/><text fill="#000000" font-family="sans-serif" font-size="22.4" font-weight="bold" lengthAdjust="spacing" textLength="177.6" x="358.4" y="2967.2531">Manage Course</text><!--MD5=[43214cbd1e0197b8cc4cca57b33ad98c]
cluster Manage Subject--><rect fill="#FFF0F5" height="491.2" style="stroke:#000000;stroke-width:2.4000000000000004;" width="379.2" x="257.6" y="3451.2"/><text fill="#000000" font-family="sans-serif" font-size="22.4" font-weight="bold" lengthAdjust="spacing" textLength="180.8" x="356.8" y="3477.6531">Manage Subject</text><!--MD5=[3682ce3e3b24e24108c4d8eabb725c9f]
cluster Manage Course Registration--><rect fill="#F5F5DC" height="979.2" style="stroke:#000000;stroke-width:2.4000000000000004;" width="411.2" x="241.6" y="1172.8"/><text fill="#000000" font-family="sans-serif" font-size="22.4" font-weight="bold" lengthAdjust="spacing" textLength="321.6" x="286.4" y="1199.2531">Manage Course Registration</text><ellipse cx="447.1312" cy="194.8662" fill="#FEFECE" rx="111.1312" ry="26.0662" style="stroke:#A80036;stroke-width:2.4000000000000004;"/><text fill="#000000" font-family="sans-serif" font-size="22.4" lengthAdjust="spacing" textLength="137.6" x="373.5312" y="202.0928">Register User</text><ellipse cx="447.5744" cy="411.1227" fill="#FEFECE" rx="57.9744" ry="24.7227" style="stroke:#A80036;stroke-width:2.4000000000000004;"/><text fill="#000000" font-family="sans-serif" font-size="22.4" lengthAdjust="spacing" textLength="56" x="419.5744" y="417.0884">Login</text><ellipse cx="446.8059" cy="975.6012" fill="#FEFECE" rx="106.8059" ry="25.2012" style="stroke:#A80036;stroke-width:2.4000000000000004;"/><text fill="#000000" font-family="sans-serif" font-size="22.4" lengthAdjust="spacing" textLength="124.8" x="379.6059" y="982.8277">Update User</text><ellipse cx="447.3633" cy="1083.3818" fill="#FEFECE" rx="103.3633" ry="24.9818" style="stroke:#A80036;stroke-width:2.4000000000000004;"/><text fill="#000000" font-family="sans-serif" font-size="22.4" lengthAdjust="spacing" textLength="118.4" x="383.3633" y="1090.6084">Delete User</text><ellipse cx="446.8059" cy="868.4012" fill="#FEFECE" rx="106.8059" ry="25.2012" style="stroke:#A80036;stroke-width:2.4000000000000004;"/><text fill="#000000" font-family="sans-serif" font-size="22.4" lengthAdjust="spacing" textLength="124.8" x="379.6059" y="875.6277">Search User</text><ellipse cx="447.0004" cy="526.6801" fill="#FEFECE" rx="150.2004" ry="33.8801" style="stroke:#A80036;stroke-width:2.4000000000000004;"/><text fill="#000000" font-family="sans-serif" font-size="22.4" lengthAdjust="spacing" textLength="235.2" x="329.4004" y="532.6457">Password Management</text><ellipse cx="446.83" cy="641.846" fill="#FEFECE" rx="110.03" ry="25.846" style="stroke:#A80036;stroke-width:2.4000000000000004;"/><text fill="#000000" font-family="sans-serif" font-size="22.4" lengthAdjust="spacing" textLength="134.4" x="374.83" y="649.0726">View Settings</text><ellipse cx="446.9565" cy="754.9913" fill="#FEFECE" rx="135.7565" ry="30.9913" style="stroke:#A80036;stroke-width:2.4000000000000004;"/><text fill="#000000" font-family="sans-serif" font-size="22.4" lengthAdjust="spacing" textLength="201.6" x="346.1565" y="760.9569">Update Preferences</text><ellipse cx="446.9707" cy="304.1141" fill="#FEFECE" rx="113.3707" ry="26.5141" style="stroke:#A80036;stroke-width:2.4000000000000004;"/><text fill="#000000" font-family="sans-serif" font-size="22.4" lengthAdjust="spacing" textLength="144" x="370.1707" y="311.3407">Global Search</text><ellipse cx="447.5781" cy="2737.9956" fill="#FEFECE" rx="122.7781" ry="28.3956" style="stroke:#A80036;stroke-width:2.4000000000000004;"/><text fill="#000000" font-family="sans-serif" font-size="22.4" lengthAdjust="spacing" textLength="169.6" x="358.7209" y="2745.0487">Register Student</text><ellipse cx="447.5884" cy="2849.8377" fill="#FEFECE" rx="117.9884" ry="27.4377" style="stroke:#A80036;stroke-width:2.4000000000000004;"/><text fill="#000000" font-family="sans-serif" font-size="22.4" lengthAdjust="spacing" textLength="156.8" x="364.3884" y="2857.0642">Update Student</text><ellipse cx="446.8574" cy="2514.9715" fill="#FEFECE" rx="115.6574" ry="26.9715" style="stroke:#A80036;stroke-width:2.4000000000000004;"/><text fill="#000000" font-family="sans-serif" font-size="22.4" lengthAdjust="spacing" textLength="150.4" x="366.8574" y="2522.198">Delete Student</text><ellipse cx="447.5884" cy="2625.8377" fill="#FEFECE" rx="117.9884" ry="27.4377" style="stroke:#A80036;stroke-width:2.4000000000000004;"/><text fill="#000000" font-family="sans-serif" font-size="22.4" lengthAdjust="spacing" textLength="156.8" x="364.3884" y="2633.0642">Search Student</text><ellipse cx="447.3056" cy="2281.4611" fill="#FEFECE" rx="148.1056" ry="33.4611" style="stroke:#A80036;stroke-width:2.4000000000000004;"/><text fill="#000000" font-family="sans-serif" font-size="22.4" lengthAdjust="spacing" textLength="230.4" x="332.1056" y="2287.4267">View Profile (with GPA)</text><ellipse cx="447.3552" cy="2401.791" fill="#FEFECE" rx="129.7552" ry="29.791" style="stroke:#A80036;stroke-width:2.4000000000000004;"/><text fill="#000000" font-family="sans-serif" font-size="22.4" lengthAdjust="spacing" textLength="187.2" x="352.9348" y="2407.997">Update Self Profile</text><ellipse cx="447.3602" cy="3248.032" fill="#FEFECE" rx="120.9602" ry="28.032" style="stroke:#A80036;stroke-width:2.4000000000000004;"/><text fill="#000000" font-family="sans-serif" font-size="22.4" lengthAdjust="spacing" textLength="164.8" x="360.1602" y="3255.2586">Register Course</text><ellipse cx="447.4361" cy="3359.8872" fill="#FEFECE" rx="116.2361" ry="27.0872" style="stroke:#A80036;stroke-width:2.4000000000000004;"/><text fill="#000000" font-family="sans-serif" font-size="22.4" lengthAdjust="spacing" textLength="152" x="366.6361" y="3367.1138">Update Course</text><ellipse cx="447.5381" cy="3025.8276" fill="#FEFECE" rx="113.9381" ry="26.6276" style="stroke:#A80036;stroke-width:2.4000000000000004;"/><text fill="#000000" font-family="sans-serif" font-size="22.4" lengthAdjust="spacing" textLength="145.6" x="369.9381" y="3033.0542">Delete Course</text><ellipse cx="447.4361" cy="3135.8872" fill="#FEFECE" rx="116.2361" ry="27.0872" style="stroke:#A80036;stroke-width:2.4000000000000004;"/><text fill="#000000" font-family="sans-serif" font-size="22.4" lengthAdjust="spacing" textLength="152" x="366.6361" y="3143.1138">Search Course</text><ellipse cx="447.1621" cy="3777.7524" fill="#FEFECE" rx="121.5621" ry="28.1524" style="stroke:#A80036;stroke-width:2.4000000000000004;"/><text fill="#000000" font-family="sans-serif" font-size="22.4" lengthAdjust="spacing" textLength="166.4" x="359.2746" y="3784.9532">Register Subject</text><ellipse cx="447.2175" cy="3889.6035" fill="#FEFECE" rx="116.8175" ry="27.2035" style="stroke:#A80036;stroke-width:2.4000000000000004;"/><text fill="#000000" font-family="sans-serif" font-size="22.4" lengthAdjust="spacing" textLength="153.6" x="365.6175" y="3896.8301">Update Subject</text><ellipse cx="447.3084" cy="3536.3417" fill="#FEFECE" rx="114.5084" ry="26.7417" style="stroke:#A80036;stroke-width:2.4000000000000004;"/><text fill="#000000" font-family="sans-serif" font-size="22.4" lengthAdjust="spacing" textLength="147.2" x="368.9084" y="3543.5682">Delete Subject</text><ellipse cx="446.8685" cy="3655.7737" fill="#FEFECE" rx="163.6685" ry="36.5737" style="stroke:#A80036;stroke-width:2.4000000000000004;"/><text fill="#000000" font-family="sans-serif" font-size="22.4" lengthAdjust="spacing" textLength="265.6" x="314.0685" y="3661.7393">Assign Teacher to Subject</text><ellipse cx="446.8025" cy="1260.7205" fill="#FEFECE" rx="132.4025" ry="30.3205" style="stroke:#A80036;stroke-width:2.4000000000000004;"/><text fill="#000000" font-family="sans-serif" font-size="22.4" lengthAdjust="spacing" textLength="193.6" x="350.0025" y="1266.6861">Request Enrolment</text><ellipse cx="446.9565" cy="1378.9913" fill="#FEFECE" rx="135.7565" ry="30.9913" style="stroke:#A80036;stroke-width:2.4000000000000004;"/><text fill="#000000" font-family="sans-serif" font-size="22.4" lengthAdjust="spacing" textLength="201.6" x="346.1565" y="1384.9569">Request Withdrawal</text><ellipse cx="447.211" cy="1495.8422" fill="#FEFECE" rx="124.011" ry="28.6422" style="stroke:#A80036;stroke-width:2.4000000000000004;"/><text fill="#000000" font-family="sans-serif" font-size="22.4" lengthAdjust="spacing" textLength="172.8" x="357.3707" y="1502.7456">View My Courses</text><ellipse cx="446.8025" cy="1982.3205" fill="#FEFECE" rx="132.4025" ry="30.3205" style="stroke:#A80036;stroke-width:2.4000000000000004;"/><text fill="#000000" font-family="sans-serif" font-size="22.4" lengthAdjust="spacing" textLength="193.6" x="350.0025" y="1988.2861">Approve Enrolment</text><ellipse cx="447.211" cy="2097.4422" fill="#FEFECE" rx="124.011" ry="28.6422" style="stroke:#A80036;stroke-width:2.4000000000000004;"/><text fill="#000000" font-family="sans-serif" font-size="22.4" lengthAdjust="spacing" textLength="172.8" x="357.3707" y="2104.3456">Reject Enrolment</text><ellipse cx="446.9565" cy="1612.5913" fill="#FEFECE" rx="135.7565" ry="30.9913" style="stroke:#A80036;stroke-width:2.4000000000000004;"/><text fill="#000000" font-family="sans-serif" font-size="22.4" lengthAdjust="spacing" textLength="201.6" x="346.1565" y="1618.5569">Approve Withdrawal</text><ellipse cx="447.164" cy="1729.2728" fill="#FEFECE" rx="127.164" ry="29.2728" style="stroke:#A80036;stroke-width:2.4000000000000004;"/><text fill="#000000" font-family="sans-serif" font-size="22.4" lengthAdjust="spacing" textLength="180.8" x="354.8096" y="1735.7934">Reject Withdrawal</text><ellipse cx="446.8183" cy="1855.7637" fill="#FEFECE" rx="179.6183" ry="39.7637" style="stroke:#A80036;stroke-width:2.4000000000000004;"/><text fill="#000000" font-family="sans-serif" font-size="22.4" lengthAdjust="spacing" textLength="300.8" x="296.4183" y="1861.7293">Search &amp; Manage Enrolments</text><!--MD5=[9eecb807d8a7c1ba44cb916f191401d3]
entity Guest--><ellipse cx="48.8" cy="309.6" fill="#D3D3D3" rx="12.8" ry="12.8" style="stroke:#A80036;stroke-width:2.4000000000000004;"/><path d="M48.8,322.4 L48.8,365.6 M28,335.2 L69.6,335.2 M48.8,365.6 L28,389.6 M48.8,365.6 L69.6,389.6 " fill="none" style="stroke:#A80036;stroke-width:2.4000000000000004;"/><text fill="#000000" font-family="sans-serif" font-size="22.4" lengthAdjust="spacing" textLength="60.8" x="18.4" y="416.8531">Guest</text><!--MD5=[494c489cc4328319247ec2e1625e02a3]
entity Student--><ellipse cx="48.8" cy="959.2" fill="#ADD8E6" rx="12.8" ry="12.8" style="stroke:#A80036;stroke-width:2.4000000000000004;"/><path d="M48.8,972 L48.8,1015.2 M28,984.8 L69.6,984.8 M48.8,1015.2 L28,1039.2 M48.8,1015.2 L69.6,1039.2 " fill="none" style="stroke:#A80036;stroke-width:2.4000000000000004;"/><text fill="#000000" font-family="sans-serif" font-size="22.4" lengthAdjust="spacing" textLength="78.4" x="9.6" y="1066.4531">Student</text><!--MD5=[75bcab72e22e3bde62d8cef4f1a817de]
entity Staff--><ellipse cx="48.8" cy="2048.8" fill="#90EE90" rx="12.8" ry="12.8" style="stroke:#A80036;stroke-width:2.4000000000000004;"/><path d="M48.8,2061.6 L48.8,2104.8 M28,2074.4 L69.6,2074.4 M48.8,2104.8 L28,2128.8 M48.8,2104.8 L69.6,2128.8 " fill="none" style="stroke:#A80036;stroke-width:2.4000000000000004;"/><text fill="#000000" font-family="sans-serif" font-size="22.4" lengthAdjust="spacing" textLength="46.4" x="25.6" y="2156.0531">Staff</text><!--MD5=[d02371785c10ac076f7d7af29142ab27]
link Guest to UC_RegisterUser--><path d="M71.744,294.064 C80.256,277.216 91.808,260.688 107.2,249.6 C171.584,203.2 260.72,190.384 331.344,188.752 " fill="none" id="Guest-to-UC_RegisterUser" style="stroke:#A80036;stroke-width:1.6;"/><polygon fill="#A80036" points="339.424,188.608,324.9164,182.4558,331.4252,188.7451,325.1358,195.2539,339.424,188.608" style="stroke:#A80036;stroke-width:1.6;"/><!--MD5=[a0b9cd09cc67441be80fb366e5b2a356]
link Guest to UC_Login--><path d="M79.456,362.288 C143.36,370.816 297.232,391.376 383.792,402.944 " fill="none" id="Guest-to-UC_Login" style="stroke:#A80036;stroke-width:1.6;"/><polygon fill="#A80036" points="391.952,404.032,378.5413,395.7571,384.0244,402.9582,376.8233,408.4413,391.952,404.032" style="stroke:#A80036;stroke-width:1.6;"/><!--MD5=[d66680b00c7ba5ce6c662f66fd570603]
link Guest to UC_PasswordMgmt--><path d="M73.44,422.848 C81.84,438.432 92.896,453.584 107.2,464 C159.056,501.808 226.992,518.864 288.368,525.936 " fill="none" id="Guest-to-UC_PasswordMgmt" style="stroke:#A80036;stroke-width:1.6;"/><polygon fill="#A80036" points="296.592,526.832,282.9718,518.9067,288.6393,525.9636,281.5824,531.6311,296.592,526.832" style="stroke:#A80036;stroke-width:1.6;"/><!--MD5=[31c7ed8942aacf0651d041a30dedce1d]
link Guest to UC_GlobalSearch--><path d="M79.456,354.4 C133.68,346.928 252.72,330.544 340.4,318.48 " fill="none" id="Guest-to-UC_GlobalSearch" style="stroke:#A80036;stroke-width:1.6;"/><polygon fill="#A80036" points="348.8,317.328,333.6572,312.9674,340.8759,318.4273,335.416,325.646,348.8,317.328" style="stroke:#A80036;stroke-width:1.6;"/><!--MD5=[aeb458f9fd1f4ed00f440cfbb2e5500f]
link Student to UC_Login--><path d="M52.768,943.68 C58.432,807.184 74.688,498.192 107.2,464 C178.352,389.152 308.704,391.552 385.184,400.848 " fill="none" id="Student-to-UC_Login" style="stroke:#A80036;stroke-width:1.6;"/><polygon fill="#A80036" points="393.328,401.888,379.8475,393.7274,385.3915,400.8816,378.2373,406.4257,393.328,401.888" style="stroke:#A80036;stroke-width:1.6;"/><!--MD5=[4c3ee96b96e00d41371105737c68b0e4]
link Student to UC_PasswordMgmt--><path d="M50.16,943.616 C51.2,838.576 59.536,636.992 107.2,587.2 C155.2,537.072 229.408,519.936 296.112,516.16 " fill="none" id="Student-to-UC_PasswordMgmt" style="stroke:#A80036;stroke-width:1.6;"/><polygon fill="#A80036" points="304.208,515.76,289.5137,510.0682,296.2175,516.1492,290.1364,522.853,304.208,515.76" style="stroke:#A80036;stroke-width:1.6;"/><!--MD5=[0dbbcaffa3711f7d365733ed55389214]
link Student to UC_ViewSettings--><path d="M53.568,943.488 C58.96,862.368 72.88,729.616 107.2,696 C167.904,636.544 266.176,626.496 341.216,629.232 " fill="none" id="Student-to-UC_ViewSettings" style="stroke:#A80036;stroke-width:1.6;"/><polygon fill="#A80036" points="349.328,629.568,335.2152,622.5573,341.3353,629.2255,334.6672,635.3456,349.328,629.568" style="stroke:#A80036;stroke-width:1.6;"/><!--MD5=[06ae62f41a90ae1154718dfe9d6f9c03]
link Student to UC_UpdatePreferences--><path d="M52.4,943.984 C57.264,901.136 70.896,846.848 107.2,814.4 C161.152,766.192 239.968,750.368 307.968,747.088 " fill="none" id="Student-to-UC_UpdatePreferences" style="stroke:#A80036;stroke-width:1.6;"/><polygon fill="#A80036" points="316.192,746.736,301.5477,740.9167,308.1984,747.0557,302.0593,753.7064,316.192,746.736" style="stroke:#A80036;stroke-width:1.6;"/><!--MD5=[e22dc5da38ae3fc2349c0a52131bd0e2]
link Student to UC_GlobalSearch--><path d="M53.92,943.456 C62.912,783.424 87.44,379.632 107.2,358.4 C165.472,295.76 265.008,286.32 341.088,290.08 " fill="none" id="Student-to-UC_GlobalSearch" style="stroke:#A80036;stroke-width:1.6;"/><polygon fill="#A80036" points="349.312,290.544,335.3006,283.3329,341.325,290.0876,334.5703,296.1121,349.312,290.544" style="stroke:#A80036;stroke-width:1.6;"/><!--MD5=[fc3d17649009a18116d16ac86733227d]
link Student to UC_ViewProfile--><path d="M52.64,1072.224 C61.088,1310.288 91.248,2129.984 107.2,2152 C153.328,2215.632 235.04,2248.016 306.608,2264.512 " fill="none" id="Student-to-UC_ViewProfile" style="stroke:#A80036;stroke-width:1.6;"/><polygon fill="#A80036" points="314.832,2266.352,302.1633,2256.9806,307.0225,2264.6166,299.3866,2269.4758,314.832,2266.352" style="stroke:#A80036;stroke-width:1.6;"/><!--MD5=[9727f6740eed8619b0dfef0bfed87da4]
link Student to UC_UpdateSelfProfile--><path d="M52.864,1072.048 C63.072,1337.312 101.888,2336.352 107.2,2342.4 C159.664,2402.208 249.328,2415.76 323.184,2415.024 " fill="none" id="Student-to-UC_UpdateSelfProfile" style="stroke:#A80036;stroke-width:1.6;"/><polygon fill="#A80036" points="331.184,2414.896,316.6764,2408.7438,323.1852,2415.0331,316.8958,2421.5419,331.184,2414.896" style="stroke:#A80036;stroke-width:1.6;"/><!--MD5=[35e80facb3a0f056d6b9005dbfca35d2]
link Student to UC_RequestEnrolment--><path d="M68.16,1072.624 C76.896,1094.608 89.472,1117.792 107.2,1134.4 C168.448,1191.792 258.144,1223.728 329.808,1241.136 " fill="none" id="Student-to-UC_RequestEnrolment" style="stroke:#A80036;stroke-width:1.6;"/><polygon fill="#A80036" points="338.016,1243.088,325.4912,1233.525,330.2338,1241.234,322.5248,1245.9766,338.016,1243.088" style="stroke:#A80036;stroke-width:1.6;"/><!--MD5=[3c045e77c5293f764da0f96bd6ba7494]
link Student to UC_RequestWithdrawal--><path d="M53.712,1072.096 C59.248,1152.688 73.344,1284.656 107.2,1318.4 C159.504,1370.528 240.288,1386.48 309.808,1389.04 " fill="none" id="Student-to-UC_RequestWithdrawal" style="stroke:#A80036;stroke-width:1.6;"/><polygon fill="#A80036" points="318.24,1389.28,304.0292,1382.4702,310.2433,1389.0509,303.6626,1395.2649,318.24,1389.28" style="stroke:#A80036;stroke-width:1.6;"/><!--MD5=[1150c9293c3f4aa020bfec3643e57444]
link Student to UC_ViewMyCourses--><path d="M49.888,1072.176 C50.448,1179.168 58.048,1387.376 107.2,1438.4 C162.736,1496.048 253.152,1509.056 326.56,1508.4 " fill="none" id="Student-to-UC_ViewMyCourses" style="stroke:#A80036;stroke-width:1.6;"/><polygon fill="#A80036" points="334.976,1508.272,320.4684,1502.1198,326.9772,1508.4091,320.6878,1514.9179,334.976,1508.272" style="stroke:#A80036;stroke-width:1.6;"/><!--MD5=[52237892b839b3016fbcdf48bdcfabd5]
link Staff to UC_Login--><path d="M52.992,2033.36 C59.328,1874.784 76.032,1451.984 88,1099.2 C89.2,1063.92 83.84,490.464 107.2,464 C175.92,386.144 308.352,389.936 385.6,400.224 " fill="none" id="Staff-to-UC_Login" style="stroke:#A80036;stroke-width:1.6;"/><polygon fill="#A80036" points="393.824,401.36,380.4637,393.0041,385.903,400.2382,378.6689,405.6776,393.824,401.36" style="stroke:#A80036;stroke-width:1.6;"/><!--MD5=[af65572695d51aedc0c84f472d67b074]
link Staff to UC_UpdateUser--><path d="M51.616,2033.44 C56.128,1808.608 73.552,1067.824 107.2,1030.4 C166.112,964.864 270.128,956.944 347.328,961.92 " fill="none" id="Staff-to-UC_UpdateUser" style="stroke:#A80036;stroke-width:1.6;"/><polygon fill="#A80036" points="355.664,962.512,341.7581,955.0995,347.6844,961.9404,340.8435,967.8668,355.664,962.512" style="stroke:#A80036;stroke-width:1.6;"/><!--MD5=[961baaaf1ae0946b6dcc9ebcadeb94bb]
link Staff to UC_DeleteUser--><path d="M50.48,2033.376 C51.248,1839.696 57.728,1270.592 107.2,1204.8 C161.312,1132.832 261.888,1103.36 339.376,1091.344 " fill="none" id="Staff-to-UC_DeleteUser" style="stroke:#A80036;stroke-width:1.6;"/><polygon fill="#A80036" points="347.744,1090.096,332.5528,1085.9072,339.8328,1091.285,334.4551,1098.5651,347.744,1090.096" style="stroke:#A80036;stroke-width:1.6;"/><!--MD5=[1feb8f8d2f770a5fc820b99ee3a0207e]
link Staff to UC_SearchUser--><path d="M52.4,2033.552 C60.128,1791.136 88.464,942.448 107.2,921.6 C166.448,855.68 271.44,848.624 348.816,854.24 " fill="none" id="Staff-to-UC_SearchUser" style="stroke:#A80036;stroke-width:1.6;"/><polygon fill="#A80036" points="357.152,854.896,343.3099,847.3649,349.1776,854.2562,342.2863,860.1239,357.152,854.896" style="stroke:#A80036;stroke-width:1.6;"/><!--MD5=[31ee0c986ff0f672b94782c7582544b1]
link Staff to UC_PasswordMgmt--><path d="M52.816,2033.36 C58.8,1874.768 74.752,1451.936 88,1099.2 C89.072,1070.752 88.528,608.688 107.2,587.2 C154.032,533.296 230.992,516.496 299.712,513.888 " fill="none" id="Staff-to-UC_PasswordMgmt" style="stroke:#A80036;stroke-width:1.6;"/><polygon fill="#A80036" points="308.048,513.632,293.4711,507.6459,300.0513,513.8605,293.8367,520.4407,308.048,513.632" style="stroke:#A80036;stroke-width:1.6;"/><!--MD5=[e3fe342ef751c7c2206d1f88462860e1]
link Staff to UC_ViewSettings--><path d="M52.72,2033.584 C62.688,1759.984 101.568,702.336 107.2,696 C165.328,630.528 268.416,622.336 345.6,627.216 " fill="none" id="Staff-to-UC_ViewSettings" style="stroke:#A80036;stroke-width:1.6;"/><polygon fill="#A80036" points="353.92,627.808,340.0126,620.3983,345.9403,627.238,339.1006,633.1658,353.92,627.808" style="stroke:#A80036;stroke-width:1.6;"/><!--MD5=[b6ce301d7e522007c2a17da561ac2598]
link Staff to UC_UpdatePreferences--><path d="M52.704,2033.296 C62.048,1774.944 97.024,825.968 107.2,814.4 C158,756.592 243.552,742.016 315.92,741.776 " fill="none" id="Staff-to-UC_UpdatePreferences" style="stroke:#A80036;stroke-width:1.6;"/><polygon fill="#A80036" points="324.224,741.808,309.8423,735.3669,316.224,741.7851,309.8058,748.1668,324.224,741.808" style="stroke:#A80036;stroke-width:1.6;"/><!--MD5=[99507c0d2980c779b536870cc85ca1c1]
link Staff to UC_GlobalSearch--><path d="M53.088,2033.36 C59.648,1874.8 76.784,1452 88,1099.2 C88.656,1078.624 93.648,373.888 107.2,358.4 C164.272,293.152 265.984,284.544 343.04,289.248 " fill="none" id="Staff-to-UC_GlobalSearch" style="stroke:#A80036;stroke-width:1.6;"/><polygon fill="#A80036" points="351.376,289.808,337.449,282.4352,343.3948,289.2592,336.5709,295.205,351.376,289.808" style="stroke:#A80036;stroke-width:1.6;"/><!--MD5=[25209e1ce212381ee0f534759cfad345]
link Staff to UC_RegisterStudent--><path d="M52.336,2162.064 C57.28,2305.76 72.464,2642.688 107.2,2680 C162.736,2739.648 255.52,2752 329.904,2750.576 " fill="none" id="Staff-to-UC_RegisterStudent" style="stroke:#A80036;stroke-width:1.6;"/><polygon fill="#A80036" points="337.952,2750.368,323.3922,2744.3403,329.9546,2750.5736,323.7213,2757.136,337.952,2750.368" style="stroke:#A80036;stroke-width:1.6;"/><!--MD5=[16cab3d3a06db67a744d54de79401f3f]
link Staff to UC_UpdateStudent--><path d="M51.216,2161.616 C53.904,2324.976 64.912,2747.664 107.2,2793.6 C164.016,2855.312 260.768,2866.064 336.304,2863.248 " fill="none" id="Staff-to-UC_UpdateStudent" style="stroke:#A80036;stroke-width:1.6;"/><polygon fill="#A80036" points="344.48,2862.896,329.8028,2857.1603,336.4883,2863.2613,330.3873,2869.9469,344.48,2862.896" style="stroke:#A80036;stroke-width:1.6;"/><!--MD5=[78cf77729177434c657db67c166d8acc]
link Staff to UC_DeleteStudent--><path d="M51.744,2162.016 C55.072,2254.512 66.704,2418.368 107.2,2459.2 C165.664,2518.144 260.816,2529.504 335.36,2527.616 " fill="none" id="Staff-to-UC_DeleteStudent" style="stroke:#A80036;stroke-width:1.6;"/><polygon fill="#A80036" points="343.424,2527.36,328.8126,2521.4586,335.4287,2527.6349,329.2524,2534.2511,343.424,2527.36" style="stroke:#A80036;stroke-width:1.6;"/><!--MD5=[fa0a7bcd613294747ea8ea1ecc8ee3ba]
link Staff to UC_SearchStudent--><path d="M48.992,2161.968 C47.904,2277.328 52.64,2512.576 107.2,2569.6 C164.592,2629.584 259.84,2640.848 334.688,2638.656 " fill="none" id="Staff-to-UC_SearchStudent" style="stroke:#A80036;stroke-width:1.6;"/><polygon fill="#A80036" points="342.784,2638.368,328.1564,2632.5069,334.7895,2638.6649,328.6315,2645.2981,342.784,2638.368" style="stroke:#A80036;stroke-width:1.6;"/><!--MD5=[f1994816a5f7b193104e5f99753c48ef]
link Staff to UC_RegisterCourse--><path d="M51.536,2161.696 C55.872,2389.968 72.864,3151.808 107.2,3190.4 C162.24,3252.256 257.216,3263.936 332.56,3261.696 " fill="none" id="Staff-to-UC_RegisterCourse" style="stroke:#A80036;stroke-width:1.6;"/><polygon fill="#A80036" points="340.72,3261.392,326.0924,3255.5309,332.7255,3261.6889,326.5675,3268.3221,340.72,3261.392" style="stroke:#A80036;stroke-width:1.6;"/><!--MD5=[c80144cd2106be32b32692d4ec4d022e]
link Staff to UC_UpdateCourse--><path d="M51.216,2161.968 C54.56,2405.808 68.992,3261.04 107.2,3304 C163.52,3367.328 261.808,3377.552 337.984,3374.144 " fill="none" id="Staff-to-UC_UpdateCourse" style="stroke:#A80036;stroke-width:1.6;"/><polygon fill="#A80036" points="346.224,3373.712,331.5143,3368.06,338.2346,3374.1229,332.1717,3380.8431,346.224,3373.712" style="stroke:#A80036;stroke-width:1.6;"/><!--MD5=[3613ca4b357bf3aae7dc8a9124e811e1]
link Staff to UC_DeleteCourse--><path d="M50.976,2161.808 C53.12,2342.128 63.04,2843.824 107.2,2902.4 C159.68,2972 255.36,3002.336 331.632,3015.52 " fill="none" id="Staff-to-UC_DeleteCourse" style="stroke:#A80036;stroke-width:1.6;"/><polygon fill="#A80036" points="339.888,3016.896,326.7442,3008.2034,331.9981,3015.5734,324.6281,3020.8273,339.888,3016.896" style="stroke:#A80036;stroke-width:1.6;"/><!--MD5=[f7676c35914794779750d7b5ba9060b4]
link Staff to UC_SearchCourse--><path d="M49.552,2162.032 C47.456,2369.712 46.016,3011.952 107.2,3080 C163.856,3143.024 262.096,3153.28 338.192,3149.968 " fill="none" id="Staff-to-UC_SearchCourse" style="stroke:#A80036;stroke-width:1.6;"/><polygon fill="#A80036" points="346.416,3149.552,331.7225,3143.8581,338.4254,3149.9401,332.3434,3156.6431,346.416,3149.552" style="stroke:#A80036;stroke-width:1.6;"/><!--MD5=[3773559aaa254001eeb908a865ed827b]
link Staff to UC_RegisterSubject--><path d="M50.4,2162.048 C50.704,2456.304 55.104,3660.432 107.2,3720 C161.712,3782.32 256.72,3793.968 332.224,3791.584 " fill="none" id="Staff-to-UC_RegisterSubject" style="stroke:#A80036;stroke-width:1.6;"/><polygon fill="#A80036" points="340.4,3791.264,325.7724,3785.4029,332.4055,3791.5609,326.2475,3798.1941,340.4,3791.264" style="stroke:#A80036;stroke-width:1.6;"/><!--MD5=[9c42bb3a8287a93ae286bf02c3775ac6]
link Staff to UC_UpdateSubject--><path d="M50.24,2161.904 C49.776,2468.512 51.104,3769.616 107.2,3833.6 C163.248,3897.536 262.064,3907.568 338.496,3903.936 " fill="none" id="Staff-to-UC_UpdateSubject" style="stroke:#A80036;stroke-width:1.6;"/><polygon fill="#A80036" points="346.752,3903.488,332.0254,3897.8803,338.7638,3903.9229,332.7212,3910.6613,346.752,3903.488" style="stroke:#A80036;stroke-width:1.6;"/><!--MD5=[5a382f83acc71fcec3552e933b0ca0ba]
link Staff to UC_DeleteSubject--><path d="M51.2,2161.776 C54.672,2418.72 69.888,3361.872 107.2,3412.8 C158.544,3482.864 253.84,3513.168 330.24,3526.224 " fill="none" id="Staff-to-UC_DeleteSubject" style="stroke:#A80036;stroke-width:1.6;"/><polygon fill="#A80036" points="338.512,3527.584,325.3235,3518.9595,330.6154,3526.3022,323.2726,3531.5941,338.512,3527.584" style="stroke:#A80036;stroke-width:1.6;"/><!--MD5=[974cb0a0c32ca4d11496a4873643468e]
link Staff to UC_AssignTeacher--><path d="M50.64,2161.952 C51.952,2441.056 60.096,3535.456 107.2,3590.4 C149.408,3639.648 216.544,3658.944 279.92,3664.832 " fill="none" id="Staff-to-UC_AssignTeacher" style="stroke:#A80036;stroke-width:1.6;"/><polygon fill="#A80036" points="288.432,3665.552,274.6114,3657.9815,280.4595,3664.8895,273.5515,3670.7376,288.432,3665.552" style="stroke:#A80036;stroke-width:1.6;"/><!--MD5=[3adf143b5cf11a0103cd3fc2b84780b8]
link Staff to UC_ApproveEnrolment--><path d="M72.448,2068.528 C81.984,2057.936 94,2046.88 107.2,2040 C168.144,2008.24 242.848,1993.392 306.56,1986.688 " fill="none" id="Staff-to-UC_ApproveEnrolment" style="stroke:#A80036;stroke-width:1.6;"/><polygon fill="#A80036" points="315.072,1985.824,300.1052,1980.8929,307.1119,1986.6223,301.3825,1993.629,315.072,1985.824" style="stroke:#A80036;stroke-width:1.6;"/><!--MD5=[357d55640756361332cc1ac0ae487185]
link Staff to UC_RejectEnrolment--><path d="M72.208,2097.6 C117.744,2097.6 226.032,2097.6 314.336,2097.6 " fill="none" id="Staff-to-UC_RejectEnrolment" style="stroke:#A80036;stroke-width:1.6;"/><polygon fill="#A80036" points="322.816,2097.6,308.416,2091.2,314.816,2097.6,308.416,2104,322.816,2097.6" style="stroke:#A80036;stroke-width:1.6;"/><!--MD5=[575a2fbbda14c262ce14e9bbeb6ea2b1]
link Staff to UC_ApproveWithdrawal--><path d="M50.032,2033.312 C50.832,1927.28 58.8,1722.4 107.2,1672 C159.312,1617.744 242.224,1602.576 312.928,1601.152 " fill="none" id="Staff-to-UC_ApproveWithdrawal" style="stroke:#A80036;stroke-width:1.6;"/><polygon fill="#A80036" points="321.056,1601.056,306.5838,1594.821,313.0565,1601.1474,306.7301,1607.6201,321.056,1601.056" style="stroke:#A80036;stroke-width:1.6;"/><!--MD5=[a03e4c82ef8213b00e0f4218e928c0c4]
link Staff to UC_RejectWithdrawal--><path d="M53.664,2033.472 C59.152,1952.816 73.2,1820.784 107.2,1787.2 C162.624,1732.464 249.664,1718.608 321.6,1718.144 " fill="none" id="Staff-to-UC_RejectWithdrawal" style="stroke:#A80036;stroke-width:1.6;"/><polygon fill="#A80036" points="329.84,1718.16,315.4583,1711.7189,321.84,1718.1371,315.4218,1724.5188,329.84,1718.16" style="stroke:#A80036;stroke-width:1.6;"/><!--MD5=[d74250223b2a288121b76c04950a82f2]
link Staff to UC_ManageEnrolments--><path d="M55.488,2033.28 C61.856,1995.904 76,1950.896 107.2,1923.2 C148.72,1886.336 204.544,1867.36 258.848,1858.16 " fill="none" id="Staff-to-UC_ManageEnrolments" style="stroke:#A80036;stroke-width:1.6;"/><polygon fill="#A80036" points="266.864,1856.864,251.6246,1852.8539,258.9674,1858.1458,253.6755,1865.4885,266.864,1856.864" style="stroke:#A80036;stroke-width:1.6;"/><!--MD5=[a2dfbda5e0ae2c7e3bf3cbea1ba7d4a0]
@startuml Timebox1_UseCaseDiagram
left to right direction
scale 1.6
skinparam dpi 300
skinparam packageStyle rectangle
skinparam shadowing false

actor "Guest" as Guest #LightGray
actor "Student" as Student #LightBlue
actor "Staff" as Staff #LightGreen

rectangle "University Academic Portal\n(Timebox 1: Student Registration & Course Registration)" #White {

  rectangle "Manage User" #AliceBlue {
    usecase "Register User" as UC_RegisterUser
    usecase "Login" as UC_Login
    usecase "Update User" as UC_UpdateUser
    usecase "Delete User" as UC_DeleteUser
    usecase "Search User" as UC_SearchUser
    usecase "Password Management" as UC_PasswordMgmt
    usecase "View Settings" as UC_ViewSettings
    usecase "Update Preferences" as UC_UpdatePreferences
    usecase "Global Search" as UC_GlobalSearch
  }

  rectangle "Manage Student" #MintCream {
    usecase "Register Student" as UC_RegisterStudent
    usecase "Update Student" as UC_UpdateStudent
    usecase "Delete Student" as UC_DeleteStudent
    usecase "Search Student" as UC_SearchStudent
    usecase "View Profile (with GPA)" as UC_ViewProfile
    usecase "Update Self Profile" as UC_UpdateSelfProfile
  }

  rectangle "Manage Course" #Honeydew {
    usecase "Register Course" as UC_RegisterCourse
    usecase "Update Course" as UC_UpdateCourse
    usecase "Delete Course" as UC_DeleteCourse
    usecase "Search Course" as UC_SearchCourse
  }

  rectangle "Manage Subject" #LavenderBlush {
    usecase "Register Subject" as UC_RegisterSubject
    usecase "Update Subject" as UC_UpdateSubject
    usecase "Delete Subject" as UC_DeleteSubject
    usecase "Assign Teacher to Subject" as UC_AssignTeacher
  }

  rectangle "Manage Course Registration" #Beige {
    usecase "Request Enrolment" as UC_RequestEnrolment
    usecase "Request Withdrawal" as UC_RequestWithdrawal
    usecase "View My Courses" as UC_ViewMyCourses
    usecase "Approve Enrolment" as UC_ApproveEnrolment
    usecase "Reject Enrolment" as UC_RejectEnrolment
    usecase "Approve Withdrawal" as UC_ApproveWithdrawal
    usecase "Reject Withdrawal" as UC_RejectWithdrawal
    usecase "Search & Manage Enrolments" as UC_ManageEnrolments
  }
}

Guest - -> UC_RegisterUser
Guest - -> UC_Login
Guest - -> UC_PasswordMgmt
Guest - -> UC_GlobalSearch

Student - -> UC_Login
Student - -> UC_PasswordMgmt
Student - -> UC_ViewSettings
Student - -> UC_UpdatePreferences
Student - -> UC_GlobalSearch
Student - -> UC_ViewProfile
Student - -> UC_UpdateSelfProfile
Student - -> UC_RequestEnrolment
Student - -> UC_RequestWithdrawal
Student - -> UC_ViewMyCourses

Staff - -> UC_Login
Staff - -> UC_UpdateUser
Staff - -> UC_DeleteUser
Staff - -> UC_SearchUser
Staff - -> UC_PasswordMgmt
Staff - -> UC_ViewSettings
Staff - -> UC_UpdatePreferences
Staff - -> UC_GlobalSearch
Staff - -> UC_RegisterStudent
Staff - -> UC_UpdateStudent
Staff - -> UC_DeleteStudent
Staff - -> UC_SearchStudent
Staff - -> UC_RegisterCourse
Staff - -> UC_UpdateCourse
Staff - -> UC_DeleteCourse
Staff - -> UC_SearchCourse
Staff - -> UC_RegisterSubject
Staff - -> UC_UpdateSubject
Staff - -> UC_DeleteSubject
Staff - -> UC_AssignTeacher
Staff - -> UC_ApproveEnrolment
Staff - -> UC_RejectEnrolment
Staff - -> UC_ApproveWithdrawal
Staff - -> UC_RejectWithdrawal
Staff - -> UC_ManageEnrolments

@enduml

PlantUML version 1.2021.00(Sun Jan 10 16:55:05 MMT 2021)
(MIT source distribution)
Java Runtime: OpenJDK Runtime Environment
JVM: OpenJDK 64-Bit Server VM
Default Encoding: UTF-8
Language: en
Country: US
--></g></svg>