<?xml version="1.0" encoding="UTF-8" standalone="no"?><svg xmlns="http://www.w3.org/2000/svg" xmlns:xlink="http://www.w3.org/1999/xlink" contentScriptType="application/ecmascript" contentStyleType="text/css" height="1483px" preserveAspectRatio="none" style="width:457px;height:1483px;" version="1.1" viewBox="0 0 457 1483" width="457px" zoomAndPan="magnify"><defs/><g><!--MD5=[9146cab12193d10c7d23c8d8efbaf67c]
cluster University Academic Portal (Timebox 1: Student Registration & Course Registration)--><rect fill="#FFFFFF" height="1388" style="stroke:#000000;stroke-width:1.5;" width="397" x="54" y="7"/><text fill="#000000" font-family="sans-serif" font-size="9" font-weight="bold" lengthAdjust="spacing" textLength="381" x="62" y="18.3428">University Academic Portal (Timebox 1: Student Registration &amp; Course Registration)</text><!--MD5=[669ffbe244fb641535368be69a430f75]
cluster Manage User--><rect fill="#F0F8FF" height="308" style="stroke:#000000;stroke-width:1.5;" width="160" x="172" y="69"/><text fill="#000000" font-family="sans-serif" font-size="9" font-weight="bold" lengthAdjust="spacing" textLength="58" x="223" y="80.3428">Manage User</text><!--MD5=[f58e02aa189eb807767879b583103d7e]
cluster Manage Student--><rect fill="#F5FFFA" height="232" style="stroke:#000000;stroke-width:1.5;" width="160" x="172" y="733"/><text fill="#000000" font-family="sans-serif" font-size="9" font-weight="bold" lengthAdjust="spacing" textLength="72" x="216" y="744.3428">Manage Student</text><!--MD5=[aadc717b11792bd21e21dcaa8d8fc5e0]
cluster Manage Course--><rect fill="#F0FFF0" height="163" style="stroke:#000000;stroke-width:1.5;" width="136" x="184" y="989"/><text fill="#000000" font-family="sans-serif" font-size="9" font-weight="bold" lengthAdjust="spacing" textLength="70" x="217" y="1000.3428">Manage Course</text><!--MD5=[43214cbd1e0197b8cc4cca57b33ad98c]
cluster Manage Subject--><rect fill="#FFF0F5" height="171" style="stroke:#000000;stroke-width:1.5;" width="172" x="166" y="1176"/><text fill="#000000" font-family="sans-serif" font-size="9" font-weight="bold" lengthAdjust="spacing" textLength="71" x="216.5" y="1187.3428">Manage Subject</text><!--MD5=[3682ce3e3b24e24108c4d8eabb725c9f]
cluster Manage Course Registration--><rect fill="#F5F5DC" height="308" style="stroke:#000000;stroke-width:1.5;" width="184" x="160" y="401"/><text fill="#000000" font-family="sans-serif" font-size="9" font-weight="bold" lengthAdjust="spacing" textLength="129" x="187.5" y="412.3428">Manage Course Registration</text><ellipse cx="252.0104" cy="111.0021" fill="#FEFECE" rx="48.0104" ry="12.0021" style="stroke:#A80036;stroke-width:1.5;"/><text fill="#000000" font-family="sans-serif" font-size="9" lengthAdjust="spacing" textLength="58" x="223.0104" y="112.6847">Register User</text><ellipse cx="252.0416" cy="168.0047" fill="#FEFECE" rx="27.0416" ry="11.0047" style="stroke:#A80036;stroke-width:1.5;"/><text fill="#000000" font-family="sans-serif" font-size="9" lengthAdjust="spacing" textLength="22" x="241.0416" y="169.6873">Login</text><ellipse cx="252.0951" cy="321.119" fill="#FEFECE" rx="46.0951" ry="11.619" style="stroke:#A80036;stroke-width:1.5;"/><text fill="#000000" font-family="sans-serif" font-size="9" lengthAdjust="spacing" textLength="53" x="225.5951" y="322.8016">Update User</text><ellipse cx="251.9754" cy="348.8951" fill="#FEFECE" rx="44.9754" ry="11.3951" style="stroke:#A80036;stroke-width:1.5;"/><text fill="#000000" font-family="sans-serif" font-size="9" lengthAdjust="spacing" textLength="50" x="226.9754" y="350.5777">Delete User</text><ellipse cx="252.2192" cy="293.0438" fill="#FEFECE" rx="45.7192" ry="11.5438" style="stroke:#A80036;stroke-width:1.5;"/><text fill="#000000" font-family="sans-serif" font-size="9" lengthAdjust="spacing" textLength="52" x="226.2192" y="294.7265">Search User</text><ellipse cx="251.9667" cy="199.1933" fill="#FEFECE" rx="63.9667" ry="15.1933" style="stroke:#A80036;stroke-width:1.5;"/><text fill="#000000" font-family="sans-serif" font-size="9" lengthAdjust="spacing" textLength="96" x="203.9667" y="200.876">Password Management</text><ellipse cx="252.2372" cy="230.8474" fill="#FEFECE" rx="47.2372" ry="11.8474" style="stroke:#A80036;stroke-width:1.5;"/><text fill="#000000" font-family="sans-serif" font-size="9" lengthAdjust="spacing" textLength="56" x="224.2372" y="232.5301">View Settings</text><ellipse cx="252.2219" cy="262.1444" fill="#FEFECE" rx="58.7219" ry="14.1444" style="stroke:#A80036;stroke-width:1.5;"/><text fill="#000000" font-family="sans-serif" font-size="9" lengthAdjust="spacing" textLength="84" x="210.2219" y="263.827">Update Preferences</text><ellipse cx="252.0104" cy="140.0021" fill="#FEFECE" rx="48.0104" ry="12.0021" style="stroke:#A80036;stroke-width:1.5;"/><text fill="#000000" font-family="sans-serif" font-size="9" lengthAdjust="spacing" textLength="58" x="223.0104" y="141.6847">Global Search</text><ellipse cx="251.819" cy="904.9638" fill="#FEFECE" rx="52.819" ry="12.9638" style="stroke:#A80036;stroke-width:1.5;"/><text fill="#000000" font-family="sans-serif" font-size="9" lengthAdjust="spacing" textLength="70" x="216.819" y="906.6464">Register Student</text><ellipse cx="251.7827" cy="936.0565" fill="#FEFECE" rx="50.7827" ry="12.5565" style="stroke:#A80036;stroke-width:1.5;"/><text fill="#000000" font-family="sans-serif" font-size="9" lengthAdjust="spacing" textLength="65" x="219.2827" y="937.7392">Update Student</text><ellipse cx="252.0826" cy="843.8165" fill="#FEFECE" rx="49.5826" ry="12.3165" style="stroke:#A80036;stroke-width:1.5;"/><text fill="#000000" font-family="sans-serif" font-size="9" lengthAdjust="spacing" textLength="62" x="221.0826" y="845.4991">Delete Student</text><ellipse cx="251.8807" cy="873.9761" fill="#FEFECE" rx="50.3807" ry="12.4761" style="stroke:#A80036;stroke-width:1.5;"/><text fill="#000000" font-family="sans-serif" font-size="9" lengthAdjust="spacing" textLength="64" x="219.8807" y="875.6588">Search Student</text><ellipse cx="251.9667" cy="778.1933" fill="#FEFECE" rx="63.9667" ry="15.1933" style="stroke:#A80036;stroke-width:1.5;"/><text fill="#000000" font-family="sans-serif" font-size="9" lengthAdjust="spacing" textLength="96" x="203.9667" y="779.876">View Profile (with GPA)</text><ellipse cx="252.0086" cy="811.8017" fill="#FEFECE" rx="57.0086" ry="13.8017" style="stroke:#A80036;stroke-width:1.5;"/><text fill="#000000" font-family="sans-serif" font-size="9" lengthAdjust="spacing" textLength="80" x="212.0086" y="813.4843">Update Self Profile</text><ellipse cx="251.9993" cy="1091.7999" fill="#FEFECE" rx="51.9993" ry="12.7999" style="stroke:#A80036;stroke-width:1.5;"/><text fill="#000000" font-family="sans-serif" font-size="9" lengthAdjust="spacing" textLength="68" x="217.9993" y="1093.4825">Register Course</text><ellipse cx="251.9807" cy="1122.8961" fill="#FEFECE" rx="49.9807" ry="12.3961" style="stroke:#A80036;stroke-width:1.5;"/><text fill="#000000" font-family="sans-serif" font-size="9" lengthAdjust="spacing" textLength="63" x="220.4807" y="1124.5788">Update Course</text><ellipse cx="251.7923" cy="1031.1585" fill="#FEFECE" rx="48.7923" ry="12.1585" style="stroke:#A80036;stroke-width:1.5;"/><text fill="#000000" font-family="sans-serif" font-size="9" lengthAdjust="spacing" textLength="60" x="221.7923" y="1032.8411">Delete Course</text><ellipse cx="252.0826" cy="1060.8165" fill="#FEFECE" rx="49.5826" ry="12.3165" style="stroke:#A80036;stroke-width:1.5;"/><text fill="#000000" font-family="sans-serif" font-size="9" lengthAdjust="spacing" textLength="62" x="221.0826" y="1062.4991">Search Course</text><ellipse cx="251.9083" cy="1286.8817" fill="#FEFECE" rx="52.4083" ry="12.8817" style="stroke:#A80036;stroke-width:1.5;"/><text fill="#000000" font-family="sans-serif" font-size="9" lengthAdjust="spacing" textLength="69" x="217.4083" y="1288.5643">Register Subject</text><ellipse cx="251.8807" cy="1317.9761" fill="#FEFECE" rx="50.3807" ry="12.4761" style="stroke:#A80036;stroke-width:1.5;"/><text fill="#000000" font-family="sans-serif" font-size="9" lengthAdjust="spacing" textLength="64" x="219.8807" y="1319.6588">Update Subject</text><ellipse cx="252.1864" cy="1218.2373" fill="#FEFECE" rx="49.1864" ry="12.2373" style="stroke:#A80036;stroke-width:1.5;"/><text fill="#000000" font-family="sans-serif" font-size="9" lengthAdjust="spacing" textLength="61" x="221.6864" y="1219.9199">Delete Subject</text><ellipse cx="251.7921" cy="1251.8584" fill="#FEFECE" rx="69.7921" ry="16.3584" style="stroke:#A80036;stroke-width:1.5;"/><text fill="#000000" font-family="sans-serif" font-size="9" lengthAdjust="spacing" textLength="109" x="197.2921" y="1253.541">Assign Teacher to Subject</text><ellipse cx="252.0086" cy="444.8017" fill="#FEFECE" rx="57.0086" ry="13.8017" style="stroke:#A80036;stroke-width:1.5;"/><text fill="#000000" font-family="sans-serif" font-size="9" lengthAdjust="spacing" textLength="80" x="212.0086" y="446.4843">Request Enrolment</text><ellipse cx="251.7918" cy="478.0584" fill="#FEFECE" rx="58.2918" ry="14.0584" style="stroke:#A80036;stroke-width:1.5;"/><text fill="#000000" font-family="sans-serif" font-size="9" lengthAdjust="spacing" textLength="83" x="210.2918" y="479.741">Request Withdrawal</text><ellipse cx="252.0606" cy="510.2121" fill="#FEFECE" rx="54.0606" ry="13.2121" style="stroke:#A80036;stroke-width:1.5;"/><text fill="#000000" font-family="sans-serif" font-size="9" lengthAdjust="spacing" textLength="73" x="215.5606" y="511.8947">View My Courses</text><ellipse cx="252.0086" cy="647.8017" fill="#FEFECE" rx="57.0086" ry="13.8017" style="stroke:#A80036;stroke-width:1.5;"/><text fill="#000000" font-family="sans-serif" font-size="9" lengthAdjust="spacing" textLength="80" x="212.0086" y="649.4843">Approve Enrolment</text><ellipse cx="252.1452" cy="680.129" fill="#FEFECE" rx="53.6452" ry="13.129" style="stroke:#A80036;stroke-width:1.5;"/><text fill="#000000" font-family="sans-serif" font-size="9" lengthAdjust="spacing" textLength="72" x="216.1452" y="681.8117">Reject Enrolment</text><ellipse cx="251.7918" cy="542.0584" fill="#FEFECE" rx="58.2918" ry="14.0584" style="stroke:#A80036;stroke-width:1.5;"/><text fill="#000000" font-family="sans-serif" font-size="9" lengthAdjust="spacing" textLength="83" x="210.2918" y="543.741">Approve Withdrawal</text><ellipse cx="251.8959" cy="574.8792" fill="#FEFECE" rx="54.8959" ry="13.3792" style="stroke:#A80036;stroke-width:1.5;"/><text fill="#000000" font-family="sans-serif" font-size="9" lengthAdjust="spacing" textLength="75" x="214.3959" y="576.5618">Reject Withdrawal</text><ellipse cx="252.1928" cy="611.1386" fill="#FEFECE" rx="76.1928" ry="17.6386" style="stroke:#A80036;stroke-width:1.5;"/><text fill="#000000" font-family="sans-serif" font-size="9" lengthAdjust="spacing" textLength="123" x="190.6928" y="612.8212">Search &amp; Manage Enrolments</text><!--MD5=[9eecb807d8a7c1ba44cb916f191401d3]
entity Guest--><ellipse cx="22" cy="127" fill="#D3D3D3" rx="8" ry="8" style="stroke:#A80036;stroke-width:1.5;"/><path d="M22,135 L22,162 M9,143 L35,143 M22,162 L9,177 M22,162 L35,177 " fill="none" style="stroke:#A80036;stroke-width:1.5;"/><text fill="#000000" font-family="sans-serif" font-size="9" lengthAdjust="spacing" textLength="25" x="9.5" y="188.8428">Guest</text><!--MD5=[494c489cc4328319247ec2e1625e02a3]
entity Student--><ellipse cx="22" cy="327" fill="#ADD8E6" rx="8" ry="8" style="stroke:#A80036;stroke-width:1.5;"/><path d="M22,335 L22,362 M9,343 L35,343 M22,362 L9,377 M22,362 L35,377 " fill="none" style="stroke:#A80036;stroke-width:1.5;"/><text fill="#000000" font-family="sans-serif" font-size="9" lengthAdjust="spacing" textLength="32" x="6" y="388.8428">Student</text><!--MD5=[75bcab72e22e3bde62d8cef4f1a817de]
entity Staff--><ellipse cx="22" cy="653" fill="#90EE90" rx="8" ry="8" style="stroke:#A80036;stroke-width:1.5;"/><path d="M22,661 L22,688 M9,669 L35,669 M22,688 L9,703 M22,688 L35,703 " fill="none" style="stroke:#A80036;stroke-width:1.5;"/><text fill="#000000" font-family="sans-serif" font-size="9" lengthAdjust="spacing" textLength="22" x="11" y="714.8428">Staff</text><!--MD5=[d02371785c10ac076f7d7af29142ab27]
link Guest to UC_RegisterUser--><path d="M36.75,133.97 C39.5,131.21 42.6,128.73 46,127 C95.66,101.68 161.01,101.29 204.43,104.85 " fill="none" id="Guest-to-UC_RegisterUser" style="stroke:#808080;stroke-width:1.0;"/><polygon fill="#808080" points="209.62,105.3,200.9956,100.5439,204.6384,104.8718,200.3105,108.5145,209.62,105.3" style="stroke:#808080;stroke-width:1.0;"/><!--MD5=[a0b9cd09cc67441be80fb366e5b2a356]
link Guest to UC_Login--><path d="M36.58,154.83 C72.36,157.03 169.89,163.02 220.15,166.11 " fill="none" id="Guest-to-UC_Login" style="stroke:#808080;stroke-width:1.0;"/><polygon fill="#808080" points="225.16,166.41,216.4165,161.8767,220.169,166.1097,215.936,169.8622,225.16,166.41" style="stroke:#808080;stroke-width:1.0;"/><!--MD5=[d66680b00c7ba5ce6c662f66fd570603]
link Guest to UC_PasswordMgmt--><path d="M36.6,172.99 C39.4,175.76 42.56,178.25 46,180 C89.65,202.14 145.26,206.03 187.54,204.86 " fill="none" id="Guest-to-UC_PasswordMgmt" style="stroke:#808080;stroke-width:1.0;"/><polygon fill="#808080" points="192.63,204.7,183.4982,201.0107,187.6329,204.8713,183.7723,209.006,192.63,204.7" style="stroke:#808080;stroke-width:1.0;"/><!--MD5=[31c7ed8942aacf0651d041a30dedce1d]
link Guest to UC_GlobalSearch--><path d="M36.58,153.17 C68.06,151.23 147.37,146.36 200.21,143.12 " fill="none" id="Guest-to-UC_GlobalSearch" style="stroke:#808080;stroke-width:1.0;"/><polygon fill="#808080" points="205.23,142.81,196.006,139.3578,200.239,143.1103,196.4865,147.3433,205.23,142.81" style="stroke:#808080;stroke-width:1.0;"/><!--MD5=[aeb458f9fd1f4ed00f440cfbb2e5500f]
link Student to UC_Login--><path d="M22.73,317.33 C23.26,272.61 27.13,200.76 46,183 C70.37,160.06 169.07,162.68 220.1,165.73 " fill="none" id="Student-to-UC_Login" style="stroke:#2563EB;stroke-width:1.0;"/><polygon fill="#2563EB" points="225.19,166.04,216.4457,161.5082,220.199,165.7405,215.9666,169.4938,225.19,166.04" style="stroke:#2563EB;stroke-width:1.0;"/><!--MD5=[4c3ee96b96e00d41371105737c68b0e4]
link Student to UC_PasswordMgmt--><path d="M24.29,317.46 C26.38,281.83 31.82,231.15 46,218 C86.71,180.24 153.49,181.31 199.72,187.99 " fill="none" id="Student-to-UC_PasswordMgmt" style="stroke:#2563EB;stroke-width:1.0;"/><polygon fill="#2563EB" points="204.69,188.74,196.3844,183.4468,199.7455,187.9969,195.1955,191.358,204.69,188.74" style="stroke:#2563EB;stroke-width:1.0;"/><!--MD5=[0dbbcaffa3711f7d365733ed55389214]
link Student to UC_ViewSettings--><path d="M26.24,317.32 C29.46,290.11 35.49,256.19 46,247 C91.67,207.06 167.05,213.1 212.57,221.67 " fill="none" id="Student-to-UC_ViewSettings" style="stroke:#2563EB;stroke-width:1.0;"/><polygon fill="#2563EB" points="217.69,222.67,209.6238,217.0188,212.7827,221.7114,208.0901,224.8704,217.69,222.67" style="stroke:#2563EB;stroke-width:1.0;"/><!--MD5=[06ae62f41a90ae1154718dfe9d6f9c03]
link Student to UC_UpdatePreferences--><path d="M25.92,317.16 C28.94,303.44 34.79,289.03 46,280 C89.52,244.91 156.42,245.99 201.87,252.14 " fill="none" id="Student-to-UC_UpdatePreferences" style="stroke:#2563EB;stroke-width:1.0;"/><polygon fill="#2563EB" points="207.02,252.87,198.6677,247.6509,202.0691,252.1709,197.5491,255.5723,207.02,252.87" style="stroke:#2563EB;stroke-width:1.0;"/><!--MD5=[e22dc5da38ae3fc2349c0a52131bd0e2]
link Student to UC_GlobalSearch--><path d="M26.07,317.13 C30.89,261.39 40.27,161.52 46,156 C67.24,135.55 146.41,134.83 199.91,136.89 " fill="none" id="Student-to-UC_GlobalSearch" style="stroke:#2563EB;stroke-width:1.0;"/><polygon fill="#2563EB" points="205.01,137.1,196.1901,132.7172,200.0146,136.8853,195.8465,140.7098,205.01,137.1" style="stroke:#2563EB;stroke-width:1.0;"/><!--MD5=[fc3d17649009a18116d16ac86733227d]
link Student to UC_ViewProfile--><path d="M24.91,390.8 C29.55,479.04 41.39,695.82 46,702 C78.63,745.74 139.26,764.32 186.15,772.21 " fill="none" id="Student-to-UC_ViewProfile" style="stroke:#2563EB;stroke-width:1.0;"/><polygon fill="#2563EB" points="191.22,773.03,182.9596,767.6667,186.282,772.2451,181.7036,775.5675,191.22,773.03" style="stroke:#2563EB;stroke-width:1.0;"/><!--MD5=[9727f6740eed8619b0dfef0bfed87da4]
link Student to UC_UpdateSelfProfile--><path d="M24.92,390.76 C30.45,496.51 46,794 46,794 C86.82,836.29 159.83,831.66 206.8,822.95 " fill="none" id="Student-to-UC_UpdateSelfProfile" style="stroke:#2563EB;stroke-width:1.0;"/><polygon fill="#2563EB" points="211.83,821.98,202.2375,819.7475,206.9196,822.9221,203.7449,827.6042,211.83,821.98" style="stroke:#2563EB;stroke-width:1.0;"/><!--MD5=[35e80facb3a0f056d6b9005dbfca35d2]
link Student to UC_RequestEnrolment--><path d="M38.25,365.41 C40.77,367.06 43.41,368.65 46,370 C99.91,398.02 166.7,420.36 209.09,433.14 " fill="none" id="Student-to-UC_RequestEnrolment" style="stroke:#2563EB;stroke-width:1.0;"/><polygon fill="#2563EB" points="213.88,434.58,206.4002,428.1728,209.0889,433.1498,204.1119,435.8386,213.88,434.58" style="stroke:#2563EB;stroke-width:1.0;"/><!--MD5=[3c045e77c5293f764da0f96bd6ba7494]
link Student to UC_RequestWithdrawal--><path d="M26.34,390.58 C29.61,417.48 35.65,450.88 46,460 C88.72,497.64 157.69,495.4 203.68,488.33 " fill="none" id="Student-to-UC_RequestWithdrawal" style="stroke:#2563EB;stroke-width:1.0;"/><polygon fill="#2563EB" points="208.89,487.5,199.3665,484.9893,203.9542,488.2989,200.6447,492.8866,208.89,487.5" style="stroke:#2563EB;stroke-width:1.0;"/><!--MD5=[1150c9293c3f4aa020bfec3643e57444]
link Student to UC_ViewMyCourses--><path d="M24.12,390.69 C26.06,427.15 31.39,479.53 46,493 C89.45,533.05 162.38,528.43 208.52,520.15 " fill="none" id="Student-to-UC_ViewMyCourses" style="stroke:#2563EB;stroke-width:1.0;"/><polygon fill="#2563EB" points="213.46,519.24,203.8802,516.9537,208.5443,520.1545,205.3435,524.8187,213.46,519.24" style="stroke:#2563EB;stroke-width:1.0;"/><!--MD5=[52237892b839b3016fbcdf48bdcfabd5]
link Staff to UC_Login--><path d="M25.08,643.31 C28.15,588.74 33.94,482.97 38,393 C38.53,381.34 37.89,191.4 46,183 C69.31,158.86 168.98,162.09 220.26,165.51 " fill="none" id="Staff-to-UC_Login" style="stroke:#16A34A;stroke-width:1.0;"/><polygon fill="#16A34A" points="225.37,165.86,216.6656,161.252,220.3818,165.517,216.1168,169.2331,225.37,165.86" style="stroke:#16A34A;stroke-width:1.0;"/><!--MD5=[af65572695d51aedc0c84f472d67b074]
link Staff to UC_UpdateUser--><path d="M24.83,643.21 C29.27,555.59 40.63,341.4 46,336 C67.14,314.73 148.89,314.92 202.55,317.57 " fill="none" id="Staff-to-UC_UpdateUser" style="stroke:#16A34A;stroke-width:1.0;"/><polygon fill="#16A34A" points="207.65,317.83,198.8673,313.373,202.6566,317.5732,198.4564,321.3625,207.65,317.83" style="stroke:#16A34A;stroke-width:1.0;"/><!--MD5=[961baaaf1ae0946b6dcc9ebcadeb94bb]
link Staff to UC_DeleteUser--><path d="M24.1,643.41 C26.42,576.37 32.75,439.11 46,422 C83.15,374.01 154.4,357.5 202.33,351.86 " fill="none" id="Staff-to-UC_DeleteUser" style="stroke:#16A34A;stroke-width:1.0;"/><polygon fill="#16A34A" points="207.47,351.29,198.0796,348.3202,202.5013,351.8484,198.9731,356.2702,207.47,351.29" style="stroke:#16A34A;stroke-width:1.0;"/><!--MD5=[1feb8f8d2f770a5fc820b99ee3a0207e]
link Staff to UC_SearchUser--><path d="M24.95,643.31 C29.96,550.04 43.07,310.96 46,308 C67.15,286.61 149.32,286.89 202.99,289.57 " fill="none" id="Staff-to-UC_SearchUser" style="stroke:#16A34A;stroke-width:1.0;"/><polygon fill="#16A34A" points="208.09,289.84,199.308,285.3817,203.0966,289.5825,198.8959,293.3711,208.09,289.84" style="stroke:#16A34A;stroke-width:1.0;"/><!--MD5=[31ee0c986ff0f672b94782c7582544b1]
link Staff to UC_PasswordMgmt--><path d="M24.99,643.31 C27.94,588.74 33.59,482.95 38,393 C38.48,383.28 39.28,225.04 46,218 C85.17,176.96 154.57,179.5 201.66,187.37 " fill="none" id="Staff-to-UC_PasswordMgmt" style="stroke:#16A34A;stroke-width:1.0;"/><polygon fill="#16A34A" points="206.71,188.24,198.5285,182.7571,201.7839,187.3833,197.1577,190.6388,206.71,188.24" style="stroke:#16A34A;stroke-width:1.0;"/><!--MD5=[e3fe342ef751c7c2206d1f88462860e1]
link Staff to UC_ViewSettings--><path d="M24.9,643.5 C30.33,539.22 45.57,247.44 46,247 C66.77,225.71 147.35,225.36 201.08,227.7 " fill="none" id="Staff-to-UC_ViewSettings" style="stroke:#16A34A;stroke-width:1.0;"/><polygon fill="#16A34A" points="206.19,227.94,197.3821,223.5332,201.1952,227.7117,197.0167,231.5248,206.19,227.94" style="stroke:#16A34A;stroke-width:1.0;"/><!--MD5=[b6ce301d7e522007c2a17da561ac2598]
link Staff to UC_UpdatePreferences--><path d="M24.96,643.26 C30.23,544.67 44.43,281.62 46,280 C86.69,238.07 159.05,242.36 206.02,250.94 " fill="none" id="Staff-to-UC_UpdatePreferences" style="stroke:#16A34A;stroke-width:1.0;"/><polygon fill="#16A34A" points="211.05,251.89,202.9492,246.2885,206.1369,250.9617,201.4638,254.1494,211.05,251.89" style="stroke:#16A34A;stroke-width:1.0;"/><!--MD5=[99507c0d2980c779b536870cc85ca1c1]
link Staff to UC_GlobalSearch--><path d="M25.13,643.31 C28.26,588.75 34.13,482.98 38,393 C38.57,379.84 36.89,165.52 46,156 C66.5,134.57 146.74,134.22 200.54,136.61 " fill="none" id="Staff-to-UC_GlobalSearch" style="stroke:#16A34A;stroke-width:1.0;"/><polygon fill="#16A34A" points="205.66,136.85,196.8526,132.442,200.6652,136.621,196.4863,140.4336,205.66,136.85" style="stroke:#16A34A;stroke-width:1.0;"/><!--MD5=[25209e1ce212381ee0f534759cfad345]
link Staff to UC_RegisterStudent--><path d="M24.57,716.88 C27.34,773.43 33.99,876.31 46,888 C88.85,929.69 163.32,924.13 209.73,915.28 " fill="none" id="Staff-to-UC_RegisterStudent" style="stroke:#16A34A;stroke-width:1.0;"/><polygon fill="#16A34A" points="214.69,914.3,205.0852,912.1212,209.7849,915.2696,206.6365,919.9694,214.69,914.3" style="stroke:#16A34A;stroke-width:1.0;"/><!--MD5=[16cab3d3a06db67a744d54de79401f3f]
link Staff to UC_UpdateStudent--><path d="M23.99,716.69 C26.06,780.18 31.91,905.09 46,919 C89.16,961.6 165.27,955.16 211.62,946 " fill="none" id="Staff-to-UC_UpdateStudent" style="stroke:#16A34A;stroke-width:1.0;"/><polygon fill="#16A34A" points="216.56,944.99,206.9419,942.8704,211.661,945.9898,208.5416,950.7089,216.56,944.99" style="stroke:#16A34A;stroke-width:1.0;"/><!--MD5=[78cf77729177434c657db67c166d8acc]
link Staff to UC_DeleteStudent--><path d="M23.72,716.67 C25.32,755.27 30.35,812.44 46,827 C90.15,868.07 165.24,862.36 211.25,853.71 " fill="none" id="Staff-to-UC_DeleteStudent" style="stroke:#16A34A;stroke-width:1.0;"/><polygon fill="#16A34A" points="216.16,852.75,206.5613,850.5444,211.2522,853.7059,208.0907,858.3968,216.16,852.75" style="stroke:#16A34A;stroke-width:1.0;"/><!--MD5=[fa0a7bcd613294747ea8ea1ecc8ee3ba]
link Staff to UC_SearchStudent--><path d="M22.56,716.72 C22.86,762.87 26.44,838.33 46,857 C67.02,877.07 144.17,878.49 197.58,876.86 " fill="none" id="Staff-to-UC_SearchStudent" style="stroke:#16A34A;stroke-width:1.0;"/><polygon fill="#16A34A" points="202.68,876.7,193.5588,872.9847,197.6825,876.8571,193.8101,880.9807,202.68,876.7" style="stroke:#16A34A;stroke-width:1.0;"/><!--MD5=[f1994816a5f7b193104e5f99753c48ef]
link Staff to UC_RegisterCourse--><path d="M22.46,716.76 C21.46,809.92 21.32,1049.71 46,1075 C66.11,1095.61 142.26,1097 195.85,1095.21 " fill="none" id="Staff-to-UC_RegisterCourse" style="stroke:#16A34A;stroke-width:1.0;"/><polygon fill="#16A34A" points="200.96,1095.02,191.8177,1091.3568,195.9634,1095.2056,192.1147,1099.3513,200.96,1095.02" style="stroke:#16A34A;stroke-width:1.0;"/><!--MD5=[c80144cd2106be32b32692d4ec4d022e]
link Staff to UC_UpdateCourse--><path d="M23.68,716.76 C25.74,817.62 32.53,1092.14 46,1106 C88.5,1149.74 165.53,1142.69 212.1,1133.15 " fill="none" id="Staff-to-UC_UpdateCourse" style="stroke:#16A34A;stroke-width:1.0;"/><polygon fill="#16A34A" points="217.07,1132.09,207.4333,1130.0569,212.1802,1133.1337,209.1033,1137.8806,217.07,1132.09" style="stroke:#16A34A;stroke-width:1.0;"/><!--MD5=[3613ca4b357bf3aae7dc8a9124e811e1]
link Staff to UC_DeleteCourse--><path d="M23.84,716.64 C25.8,787.78 31.61,939.29 46,958 C82.11,1004.95 150.88,1021.77 198.77,1027.76 " fill="none" id="Staff-to-UC_DeleteCourse" style="stroke:#16A34A;stroke-width:1.0;"/><polygon fill="#16A34A" points="203.92,1028.37,195.4659,1023.3175,198.9562,1027.7692,194.5046,1031.2596,203.92,1028.37" style="stroke:#16A34A;stroke-width:1.0;"/><!--MD5=[f7676c35914794779750d7b5ba9060b4]
link Staff to UC_SearchCourse--><path d="M22.66,716.75 C22.22,804.55 23.45,1021 46,1044 C66.47,1064.87 144.6,1066 198.27,1064.1 " fill="none" id="Staff-to-UC_SearchCourse" style="stroke:#16A34A;stroke-width:1.0;"/><polygon fill="#16A34A" points="203.38,1063.91,194.2377,1060.2468,198.3834,1064.0956,194.5347,1068.2413,203.38,1063.91" style="stroke:#16A34A;stroke-width:1.0;"/><!--MD5=[3773559aaa254001eeb908a865ed827b]
link Staff to UC_RegisterSubject--><path d="M23.11,716.81 C23.64,842.78 26.84,1249.98 46,1270 C65.92,1290.81 142.12,1292.14 195.77,1290.28 " fill="none" id="Staff-to-UC_RegisterSubject" style="stroke:#16A34A;stroke-width:1.0;"/><polygon fill="#16A34A" points="200.89,1290.09,191.7477,1286.4268,195.8934,1290.2756,192.0447,1294.4213,200.89,1290.09" style="stroke:#16A34A;stroke-width:1.0;"/><!--MD5=[9c42bb3a8287a93ae286bf02c3775ac6]
link Staff to UC_UpdateSubject--><path d="M23.03,716.92 C23.31,847.36 25.76,1279.82 46,1301 C88.25,1345.22 165.71,1337.89 212.37,1328.18 " fill="none" id="Staff-to-UC_UpdateSubject" style="stroke:#16A34A;stroke-width:1.0;"/><polygon fill="#16A34A" points="217.35,1327.11,207.7145,1325.0711,212.4595,1328.1508,209.3798,1332.8959,217.35,1327.11" style="stroke:#16A34A;stroke-width:1.0;"/><!--MD5=[5a382f83acc71fcec3552e933b0ca0ba]
link Staff to UC_DeleteSubject--><path d="M22.51,716.72 C21.43,820.55 20.72,1110.98 46,1145 C81.33,1192.54 150.28,1209.23 198.41,1215.03 " fill="none" id="Staff-to-UC_DeleteSubject" style="stroke:#16A34A;stroke-width:1.0;"/><polygon fill="#16A34A" points="203.59,1215.62,195.1056,1210.6184,198.6227,1215.049,194.1921,1218.5661,203.59,1215.62" style="stroke:#16A34A;stroke-width:1.0;"/><!--MD5=[974cb0a0c32ca4d11496a4873643468e]
link Staff to UC_AssignTeacher--><path d="M23.23,716.85 C24.14,837.23 28.38,1212.29 46,1231 C83.27,1270.59 148.52,1270.57 195.41,1264.03 " fill="none" id="Staff-to-UC_AssignTeacher" style="stroke:#16A34A;stroke-width:1.0;"/><polygon fill="#16A34A" points="200.46,1263.29,190.9729,1260.6452,195.5134,1264.0191,192.1395,1268.5597,200.46,1263.29" style="stroke:#16A34A;stroke-width:1.0;"/><!--MD5=[3adf143b5cf11a0103cd3fc2b84780b8]
link Staff to UC_ApproveEnrolment--><path d="M36.61,670.33 C39.58,668.62 42.8,667.05 46,666 C92.71,650.67 148.44,646.62 190,646.15 " fill="none" id="Staff-to-UC_ApproveEnrolment" style="stroke:#16A34A;stroke-width:1.0;"/><polygon fill="#16A34A" points="195.25,646.11,186.216,642.1873,190.2502,646.1529,186.2846,650.187,195.25,646.11" style="stroke:#16A34A;stroke-width:1.0;"/><!--MD5=[357d55640756361332cc1ac0ae487185]
link Staff to UC_RejectEnrolment--><path d="M36.58,680 C66.67,680 140.45,680 193.04,680 " fill="none" id="Staff-to-UC_RejectEnrolment" style="stroke:#16A34A;stroke-width:1.0;"/><polygon fill="#16A34A" points="198.07,680,189.07,676,193.07,680,189.07,684,198.07,680" style="stroke:#16A34A;stroke-width:1.0;"/><!--MD5=[575a2fbbda14c262ce14e9bbeb6ea2b1]
link Staff to UC_ApproveWithdrawal--><path d="M25.27,643.24 C28.02,612.15 33.88,570.95 46,560 C88.47,521.65 158.04,524.24 204.18,531.55 " fill="none" id="Staff-to-UC_ApproveWithdrawal" style="stroke:#16A34A;stroke-width:1.0;"/><polygon fill="#16A34A" points="209.12,532.37,200.8924,526.9564,204.1869,531.555,199.5883,534.8494,209.12,532.37" style="stroke:#16A34A;stroke-width:1.0;"/><!--MD5=[a03e4c82ef8213b00e0f4218e928c0c4]
link Staff to UC_RejectWithdrawal--><path d="M23.19,643.1 C25.34,624.96 31.25,604.4 46,592 C90.09,554.94 160,557.83 205.69,565.04 " fill="none" id="Staff-to-UC_RejectWithdrawal" style="stroke:#16A34A;stroke-width:1.0;"/><polygon fill="#16A34A" points="210.86,565.89,202.6299,560.4803,205.9265,565.0773,201.3295,568.3739,210.86,565.89" style="stroke:#16A34A;stroke-width:1.0;"/><!--MD5=[d74250223b2a288121b76c04950a82f2]
link Staff to UC_ManageEnrolments--><path d="M35.43,643.34 C38.29,638.95 41.77,634.98 46,632 C84.8,604.7 138.41,600.05 181.08,601.91 " fill="none" id="Staff-to-UC_ManageEnrolments" style="stroke:#16A34A;stroke-width:1.0;"/><polygon fill="#16A34A" points="186.23,602.17,177.448,597.7117,181.2366,601.9125,177.0359,605.7011,186.23,602.17" style="stroke:#16A34A;stroke-width:1.0;"/><rect fill="#DDDDDD" height="59.2813" rx="5" ry="5" style="stroke:#000000;stroke-width:1.0;" width="82" x="353" y="1408"/><text fill="#000000" font-family="sans-serif" font-size="9" font-weight="bold" lengthAdjust="spacing" textLength="26" x="362" y="1424.3428">Color</text><text fill="#000000" font-family="sans-serif" font-size="9" font-weight="bold" lengthAdjust="spacing" textLength="23" x="394" y="1424.3428">Actor</text><rect fill="#808080" height="11.3203" style="stroke:none;stroke-width:1.0;" width="32" x="359" y="1426.3203"/><text fill="#000000" font-family="sans-serif" font-size="9" lengthAdjust="spacing" textLength="0" x="362" y="1435.6631"/><text fill="#000000" font-family="sans-serif" font-size="9" lengthAdjust="spacing" textLength="25" x="394" y="1435.6631">Guest</text><rect fill="#2563EB" height="11.3203" style="stroke:none;stroke-width:1.0;" width="32" x="359" y="1437.6406"/><text fill="#000000" font-family="sans-serif" font-size="9" lengthAdjust="spacing" textLength="0" x="362" y="1446.9834"/><text fill="#000000" font-family="sans-serif" font-size="9" lengthAdjust="spacing" textLength="32" x="394" y="1446.9834">Student</text><rect fill="#16A34A" height="11.3203" style="stroke:none;stroke-width:1.0;" width="32" x="359" y="1448.9609"/><text fill="#000000" font-family="sans-serif" font-size="9" lengthAdjust="spacing" textLength="0" x="362" y="1458.3037"/><text fill="#000000" font-family="sans-serif" font-size="9" lengthAdjust="spacing" textLength="22" x="394" y="1458.3037">Staff</text><line style="stroke:#000000;stroke-width:1.0;" x1="359" x2="429" y1="1415" y2="1415"/><line style="stroke:#000000;stroke-width:1.0;" x1="359" x2="429" y1="1426.3203" y2="1426.3203"/><line style="stroke:#000000;stroke-width:1.0;" x1="359" x2="429" y1="1437.6406" y2="1437.6406"/><line style="stroke:#000000;stroke-width:1.0;" x1="359" x2="429" y1="1448.9609" y2="1448.9609"/><line style="stroke:#000000;stroke-width:1.0;" x1="359" x2="429" y1="1460.2813" y2="1460.2813"/><line style="stroke:#000000;stroke-width:1.0;" x1="359" x2="359" y1="1415" y2="1460.2813"/><line style="stroke:#000000;stroke-width:1.0;" x1="391" x2="391" y1="1415" y2="1460.2813"/><line style="stroke:#000000;stroke-width:1.0;" x1="429" x2="429" y1="1415" y2="1460.2813"/><!--MD5=[fb9e8def75152e809d592fd7bf899038]
@startuml Timebox1_UseCaseDiagram
left to right direction
scale 1.0
skinparam dpi 300
skinparam packageStyle rectangle
skinparam shadowing false
' Compact layout for Word: less height
skinparam ranksep 6
skinparam nodesep 5
skinparam RectanglePadding 4
skinparam defaultFontSize 9

' Actor colours (arrows match these)
actor "Guest" as Guest #LightGray
actor "Student" as Student #LightBlue
actor "Staff" as Staff #LightGreen

rectangle "University Academic Portal (Timebox 1: Student Registration & Course Registration)" #White {

  together {
    rectangle "Manage User" #AliceBlue {
      usecase "Register User" as UC_RegisterUser
      usecase "Login" as UC_Login
      usecase "Update User" as UC_UpdateUser
      usecase "Delete User" as UC_DeleteUser
      usecase "Search User" as UC_SearchUser
      usecase "Password Management" as UC_PasswordMgmt
      usecase "View Settings" as UC_ViewSettings
      usecase "Update Preferences" as UC_UpdatePreferences
      usecase "Global Search" as UC_GlobalSearch
    }
    rectangle "Manage Student" #MintCream {
      usecase "Register Student" as UC_RegisterStudent
      usecase "Update Student" as UC_UpdateStudent
      usecase "Delete Student" as UC_DeleteStudent
      usecase "Search Student" as UC_SearchStudent
      usecase "View Profile (with GPA)" as UC_ViewProfile
      usecase "Update Self Profile" as UC_UpdateSelfProfile
    }
    rectangle "Manage Course" #Honeydew {
      usecase "Register Course" as UC_RegisterCourse
      usecase "Update Course" as UC_UpdateCourse
      usecase "Delete Course" as UC_DeleteCourse
      usecase "Search Course" as UC_SearchCourse
    }
    rectangle "Manage Subject" #LavenderBlush {
      usecase "Register Subject" as UC_RegisterSubject
      usecase "Update Subject" as UC_UpdateSubject
      usecase "Delete Subject" as UC_DeleteSubject
      usecase "Assign Teacher to Subject" as UC_AssignTeacher
    }
    rectangle "Manage Course Registration" #Beige {
      usecase "Request Enrolment" as UC_RequestEnrolment
      usecase "Request Withdrawal" as UC_RequestWithdrawal
      usecase "View My Courses" as UC_ViewMyCourses
      usecase "Approve Enrolment" as UC_ApproveEnrolment
      usecase "Reject Enrolment" as UC_RejectEnrolment
      usecase "Approve Withdrawal" as UC_ApproveWithdrawal
      usecase "Reject Withdrawal" as UC_RejectWithdrawal
      usecase "Search & Manage Enrolments" as UC_ManageEnrolments
    }
  }
}

' Legend: Gray = Guest, Blue = Student, Green = Staff
Guest -[#808080]-> UC_RegisterUser
Guest -[#808080]-> UC_Login
Guest -[#808080]-> UC_PasswordMgmt
Guest -[#808080]-> UC_GlobalSearch

Student -[#2563EB]-> UC_Login
Student -[#2563EB]-> UC_PasswordMgmt
Student -[#2563EB]-> UC_ViewSettings
Student -[#2563EB]-> UC_UpdatePreferences
Student -[#2563EB]-> UC_GlobalSearch
Student -[#2563EB]-> UC_ViewProfile
Student -[#2563EB]-> UC_UpdateSelfProfile
Student -[#2563EB]-> UC_RequestEnrolment
Student -[#2563EB]-> UC_RequestWithdrawal
Student -[#2563EB]-> UC_ViewMyCourses

Staff -[#16A34A]-> UC_Login
Staff -[#16A34A]-> UC_UpdateUser
Staff -[#16A34A]-> UC_DeleteUser
Staff -[#16A34A]-> UC_SearchUser
Staff -[#16A34A]-> UC_PasswordMgmt
Staff -[#16A34A]-> UC_ViewSettings
Staff -[#16A34A]-> UC_UpdatePreferences
Staff -[#16A34A]-> UC_GlobalSearch
Staff -[#16A34A]-> UC_RegisterStudent
Staff -[#16A34A]-> UC_UpdateStudent
Staff -[#16A34A]-> UC_DeleteStudent
Staff -[#16A34A]-> UC_SearchStudent
Staff -[#16A34A]-> UC_RegisterCourse
Staff -[#16A34A]-> UC_UpdateCourse
Staff -[#16A34A]-> UC_DeleteCourse
Staff -[#16A34A]-> UC_SearchCourse
Staff -[#16A34A]-> UC_RegisterSubject
Staff -[#16A34A]-> UC_UpdateSubject
Staff -[#16A34A]-> UC_DeleteSubject
Staff -[#16A34A]-> UC_AssignTeacher
Staff -[#16A34A]-> UC_ApproveEnrolment
Staff -[#16A34A]-> UC_RejectEnrolment
Staff -[#16A34A]-> UC_ApproveWithdrawal
Staff -[#16A34A]-> UC_RejectWithdrawal
Staff -[#16A34A]-> UC_ManageEnrolments

legend right
  |= Color |= Actor |
  | <#808080> | Guest |
  | <#2563EB> | Student |
  | <#16A34A> | Staff |
endlegend

@enduml

@startuml Timebox1_UseCaseDiagram
left to right direction
scale 1.0
skinparam dpi 300
skinparam packageStyle rectangle
skinparam shadowing false
skinparam ranksep 6
skinparam nodesep 5
skinparam RectanglePadding 4
skinparam defaultFontSize 9

actor "Guest" as Guest #LightGray
actor "Student" as Student #LightBlue
actor "Staff" as Staff #LightGreen

rectangle "University Academic Portal (Timebox 1: Student Registration & Course Registration)" #White {

  together {
    rectangle "Manage User" #AliceBlue {
      usecase "Register User" as UC_RegisterUser
      usecase "Login" as UC_Login
      usecase "Update User" as UC_UpdateUser
      usecase "Delete User" as UC_DeleteUser
      usecase "Search User" as UC_SearchUser
      usecase "Password Management" as UC_PasswordMgmt
      usecase "View Settings" as UC_ViewSettings
      usecase "Update Preferences" as UC_UpdatePreferences
      usecase "Global Search" as UC_GlobalSearch
    }
    rectangle "Manage Student" #MintCream {
      usecase "Register Student" as UC_RegisterStudent
      usecase "Update Student" as UC_UpdateStudent
      usecase "Delete Student" as UC_DeleteStudent
      usecase "Search Student" as UC_SearchStudent
      usecase "View Profile (with GPA)" as UC_ViewProfile
      usecase "Update Self Profile" as UC_UpdateSelfProfile
    }
    rectangle "Manage Course" #Honeydew {
      usecase "Register Course" as UC_RegisterCourse
      usecase "Update Course" as UC_UpdateCourse
      usecase "Delete Course" as UC_DeleteCourse
      usecase "Search Course" as UC_SearchCourse
    }
    rectangle "Manage Subject" #LavenderBlush {
      usecase "Register Subject" as UC_RegisterSubject
      usecase "Update Subject" as UC_UpdateSubject
      usecase "Delete Subject" as UC_DeleteSubject
      usecase "Assign Teacher to Subject" as UC_AssignTeacher
    }
    rectangle "Manage Course Registration" #Beige {
      usecase "Request Enrolment" as UC_RequestEnrolment
      usecase "Request Withdrawal" as UC_RequestWithdrawal
      usecase "View My Courses" as UC_ViewMyCourses
      usecase "Approve Enrolment" as UC_ApproveEnrolment
      usecase "Reject Enrolment" as UC_RejectEnrolment
      usecase "Approve Withdrawal" as UC_ApproveWithdrawal
      usecase "Reject Withdrawal" as UC_RejectWithdrawal
      usecase "Search & Manage Enrolments" as UC_ManageEnrolments
    }
  }
}

Guest -[#808080]-> UC_RegisterUser
Guest -[#808080]-> UC_Login
Guest -[#808080]-> UC_PasswordMgmt
Guest -[#808080]-> UC_GlobalSearch

Student -[#2563EB]-> UC_Login
Student -[#2563EB]-> UC_PasswordMgmt
Student -[#2563EB]-> UC_ViewSettings
Student -[#2563EB]-> UC_UpdatePreferences
Student -[#2563EB]-> UC_GlobalSearch
Student -[#2563EB]-> UC_ViewProfile
Student -[#2563EB]-> UC_UpdateSelfProfile
Student -[#2563EB]-> UC_RequestEnrolment
Student -[#2563EB]-> UC_RequestWithdrawal
Student -[#2563EB]-> UC_ViewMyCourses

Staff -[#16A34A]-> UC_Login
Staff -[#16A34A]-> UC_UpdateUser
Staff -[#16A34A]-> UC_DeleteUser
Staff -[#16A34A]-> UC_SearchUser
Staff -[#16A34A]-> UC_PasswordMgmt
Staff -[#16A34A]-> UC_ViewSettings
Staff -[#16A34A]-> UC_UpdatePreferences
Staff -[#16A34A]-> UC_GlobalSearch
Staff -[#16A34A]-> UC_RegisterStudent
Staff -[#16A34A]-> UC_UpdateStudent
Staff -[#16A34A]-> UC_DeleteStudent
Staff -[#16A34A]-> UC_SearchStudent
Staff -[#16A34A]-> UC_RegisterCourse
Staff -[#16A34A]-> UC_UpdateCourse
Staff -[#16A34A]-> UC_DeleteCourse
Staff -[#16A34A]-> UC_SearchCourse
Staff -[#16A34A]-> UC_RegisterSubject
Staff -[#16A34A]-> UC_UpdateSubject
Staff -[#16A34A]-> UC_DeleteSubject
Staff -[#16A34A]-> UC_AssignTeacher
Staff -[#16A34A]-> UC_ApproveEnrolment
Staff -[#16A34A]-> UC_RejectEnrolment
Staff -[#16A34A]-> UC_ApproveWithdrawal
Staff -[#16A34A]-> UC_RejectWithdrawal
Staff -[#16A34A]-> UC_ManageEnrolments

legend right
  |= Color |= Actor |
  | <#808080> | Guest |
  | <#2563EB> | Student |
  | <#16A34A> | Staff |
endlegend

@enduml

PlantUML version 1.2021.00(Sun Jan 10 16:55:05 MMT 2021)
(MIT source distribution)
Java Runtime: OpenJDK Runtime Environment
JVM: OpenJDK 64-Bit Server VM
Default Encoding: UTF-8
Language: en
Country: US
--></g></svg>